<svg width="100%" height="100%" viewBox="0 0 130 40" version="1.1" xmlns="http://www.w3.org/2000/svg"
	 xml:space="preserve"
	 style="fill-rule:evenodd;clip-rule:evenodd;stroke-linejoin:round;stroke-miterlimit:2;">
    <g transform="matrix(0.890441,0,0,0.890441,-15.9522,-1.537)">
        <g transform="matrix(0.77731,0,0,0.77731,13.9309,-14.8492)">
            <g transform="matrix(25.7297,0,0,25.7297,9.8027,53.0266)">
                <path d="M0.51,-0.663L0.298,-0.663L0.317,-0.711L0.317,-0L0.232,-0L0.232,-0.711L0.256,-0.663L0.039,-0.663L0.039,-0.738L0.51,-0.738L0.51,-0.663Z"
					  style="fill:rgb(255,0,127);fill-rule:nonzero;"/>
            </g>
			<g transform="matrix(25.7297,0,0,25.7297,19.4128,53.0266)">
                <path d="M0.262,0.01C0.222,0.01 0.186,0.004 0.156,-0.009C0.126,-0.022 0.103,-0.04 0.086,-0.064C0.069,-0.088 0.061,-0.116 0.061,-0.15C0.061,-0.184 0.07,-0.213 0.088,-0.236C0.106,-0.259 0.131,-0.278 0.164,-0.291C0.197,-0.304 0.235,-0.312 0.278,-0.317C0.343,-0.323 0.39,-0.33 0.418,-0.336C0.445,-0.343 0.459,-0.353 0.459,-0.368L0.459,-0.37C0.459,-0.4 0.447,-0.423 0.422,-0.438C0.397,-0.453 0.36,-0.461 0.313,-0.461C0.264,-0.461 0.225,-0.452 0.198,-0.435C0.171,-0.418 0.157,-0.39 0.157,-0.352L0.073,-0.352C0.073,-0.392 0.083,-0.425 0.103,-0.453C0.124,-0.481 0.152,-0.502 0.188,-0.517C0.224,-0.532 0.266,-0.539 0.314,-0.539C0.357,-0.539 0.396,-0.532 0.431,-0.519C0.466,-0.506 0.493,-0.487 0.514,-0.461C0.534,-0.435 0.545,-0.403 0.545,-0.365L0.545,-0.1C0.545,-0.088 0.545,-0.077 0.546,-0.066C0.547,-0.055 0.549,-0.045 0.551,-0.037C0.554,-0.027 0.557,-0.019 0.561,-0.013C0.565,-0.007 0.568,-0.002 0.57,-0L0.485,-0C0.483,-0.002 0.48,-0.006 0.477,-0.012C0.474,-0.018 0.47,-0.025 0.468,-0.034C0.465,-0.04 0.463,-0.049 0.462,-0.059C0.461,-0.069 0.46,-0.08 0.46,-0.091L0.474,-0.081C0.464,-0.063 0.449,-0.047 0.429,-0.034C0.409,-0.02 0.385,-0.009 0.357,-0.002C0.329,0.006 0.297,0.01 0.262,0.01ZM0.276,-0.067C0.31,-0.067 0.341,-0.072 0.369,-0.082C0.396,-0.093 0.418,-0.108 0.435,-0.129C0.451,-0.15 0.459,-0.175 0.459,-0.206L0.459,-0.312L0.478,-0.28C0.457,-0.271 0.43,-0.264 0.398,-0.259C0.366,-0.254 0.333,-0.25 0.299,-0.247C0.248,-0.242 0.21,-0.233 0.185,-0.22C0.159,-0.207 0.147,-0.185 0.147,-0.155C0.147,-0.126 0.157,-0.104 0.178,-0.089C0.199,-0.074 0.232,-0.067 0.276,-0.067Z"
					  style="fill:rgb(255,0,127);fill-rule:nonzero;"/>
            </g>
			<g transform="matrix(25.7297,0,0,25.7297,33.1782,53.0266)">
                <path d="M0.077,-0L0.077,-0.782L0.158,-0.782L0.158,-0.303L0.133,-0.314L0.387,-0.531L0.497,-0.531L0.243,-0.307L0.265,-0.35L0.499,-0L0.407,-0L0.21,-0.304L0.228,-0.294L0.145,-0.222L0.158,-0.263L0.158,-0L0.077,-0Z"
					  style="fill:rgb(255,0,127);fill-rule:nonzero;"/>
            </g>
			<g transform="matrix(25.7297,0,0,25.7297,45.1168,53.0266)">
                <path d="M0.262,0.01C0.222,0.01 0.186,0.004 0.156,-0.009C0.126,-0.022 0.103,-0.04 0.086,-0.064C0.069,-0.088 0.061,-0.116 0.061,-0.15C0.061,-0.184 0.07,-0.213 0.088,-0.236C0.106,-0.259 0.131,-0.278 0.164,-0.291C0.197,-0.304 0.235,-0.312 0.278,-0.317C0.343,-0.323 0.39,-0.33 0.418,-0.336C0.445,-0.343 0.459,-0.353 0.459,-0.368L0.459,-0.37C0.459,-0.4 0.447,-0.423 0.422,-0.438C0.397,-0.453 0.36,-0.461 0.313,-0.461C0.264,-0.461 0.225,-0.452 0.198,-0.435C0.171,-0.418 0.157,-0.39 0.157,-0.352L0.073,-0.352C0.073,-0.392 0.083,-0.425 0.103,-0.453C0.124,-0.481 0.152,-0.502 0.188,-0.517C0.224,-0.532 0.266,-0.539 0.314,-0.539C0.357,-0.539 0.396,-0.532 0.431,-0.519C0.466,-0.506 0.493,-0.487 0.514,-0.461C0.534,-0.435 0.545,-0.403 0.545,-0.365L0.545,-0.1C0.545,-0.088 0.545,-0.077 0.546,-0.066C0.547,-0.055 0.549,-0.045 0.551,-0.037C0.554,-0.027 0.557,-0.019 0.561,-0.013C0.565,-0.007 0.568,-0.002 0.57,-0L0.485,-0C0.483,-0.002 0.48,-0.006 0.477,-0.012C0.474,-0.018 0.47,-0.025 0.468,-0.034C0.465,-0.04 0.463,-0.049 0.462,-0.059C0.461,-0.069 0.46,-0.08 0.46,-0.091L0.474,-0.081C0.464,-0.063 0.449,-0.047 0.429,-0.034C0.409,-0.02 0.385,-0.009 0.357,-0.002C0.329,0.006 0.297,0.01 0.262,0.01ZM0.276,-0.067C0.31,-0.067 0.341,-0.072 0.369,-0.082C0.396,-0.093 0.418,-0.108 0.435,-0.129C0.451,-0.15 0.459,-0.175 0.459,-0.206L0.459,-0.312L0.478,-0.28C0.457,-0.271 0.43,-0.264 0.398,-0.259C0.366,-0.254 0.333,-0.25 0.299,-0.247C0.248,-0.242 0.21,-0.233 0.185,-0.22C0.159,-0.207 0.147,-0.185 0.147,-0.155C0.147,-0.126 0.157,-0.104 0.178,-0.089C0.199,-0.074 0.232,-0.067 0.276,-0.067Z"
					  style="fill:rgb(255,0,127);fill-rule:nonzero;"/>
            </g>
        </g>
		<g transform="matrix(0.492602,0,0,0.492602,70.8095,8.95085)">
            <path d="M0,32.332L-2.086,31.102C-2.249,31.006 -6.1,28.68 -7.278,23.287C-8.474,17.818 -6.507,11.343 -1.432,4.04L1.376,0L-0.037,4.713C-0.426,6.008 0.021,8.597 1.611,10.845C2.345,11.882 3.929,13.637 6.297,13.75C9.062,13.882 20.48,13.869 25.979,13.832L25.989,15.4C21.036,15.432 9.182,15.457 6.223,15.316C3.975,15.209 1.883,13.942 0.331,11.751C-0.655,10.356 -1.334,8.689 -1.604,7.152C-5.322,13.146 -6.718,18.44 -5.755,22.914C-5.244,25.287 -4.128,26.996 -3.14,28.112C-3.272,27.224 -3.3,26.217 -3.045,25.274L-2.98,25.035L-2.79,24.876C3.908,19.292 8.271,16.828 21.935,16.681L21.952,18.249C8.869,18.39 4.838,20.581 -1.586,25.914C-1.967,27.796 -0.979,30.088 -0.97,30.112L0,32.332Z"
				  style="fill:rgb(255,0,127);fill-rule:nonzero;"/>
        </g>
		<g transform="matrix(0.492602,0,0,0.492602,102.722,21.2531)">
            <path d="M0,45.068C-5.072,36.193 -24.621,7.544 -63.137,11.181L-64.974,11.356L-63.824,9.913C-60.573,5.831 -61.104,2.666 -62.121,0.728L-60.732,0C-59.819,1.738 -58.832,5.152 -61.587,9.479C-23.266,6.713 -3.753,35.34 1.361,44.291L0,45.068Z"
				  style="fill:rgb(255,0,127);fill-rule:nonzero;"/>
        </g>
		<g transform="matrix(0.492602,0,0,0.492602,103.755,2.45096)">
            <path d="M0,75.777L-1.568,75.748C-1.338,63.412 -1.728,40.789 -6.918,27.87C-7.227,27.186 -7.564,26.37 -7.934,25.476C-11.391,17.112 -17.803,1.533 -40.814,1.93C-50.202,2.269 -63.744,7.079 -70.127,14.538C-72.754,17.606 -73.889,20.807 -73.501,24.052L-75.058,24.238C-75.5,20.541 -74.241,16.933 -71.318,13.518C-64.655,5.732 -50.597,0.714 -40.855,0.363C-16.789,0 -10.085,16.169 -6.484,24.877C-6.122,25.754 -5.791,26.555 -5.476,27.256C-0.17,40.461 0.231,63.322 0,75.777"
				  style="fill:rgb(255,0,127);fill-rule:nonzero;"/>
        </g>
		<g transform="matrix(0.492602,0,0,0.492602,89.3997,9.50626)">
            <path d="M0,-4.107C3.533,-4.107 -20.39,-7.348 -25.138,3.241C-15.392,-4.306 -3.533,-4.107 0,-4.107"
				  style="fill:rgb(255,0,127);fill-rule:nonzero;"/>
        </g>
		<g transform="matrix(0.492602,0,0,0.492602,81.0079,8.72253)">
            <path d="M0,9.069C-1.446,9.069 -2.827,8.717 -3.971,8.046C-5.46,7.17 -6.376,5.862 -6.55,4.361C-6.644,3.588 -6.53,2.813 -6.213,2.064L-4.77,2.677C-4.979,3.17 -5.054,3.674 -4.993,4.177C-4.877,5.181 -4.231,6.073 -3.177,6.693C-2.051,7.354 -0.616,7.622 0.87,7.451C2.592,7.25 4.157,6.449 5.058,5.309C5.648,4.561 5.909,3.732 5.812,2.913C5.734,2.252 5.419,1.625 4.902,1.099L6.02,0C6.783,0.775 7.25,1.718 7.369,2.729C7.517,3.97 7.143,5.199 6.288,6.281C5.119,7.762 3.21,8.757 1.052,9.007C0.699,9.049 0.348,9.069 0,9.069"
				  style="fill:rgb(255,0,127);fill-rule:nonzero;"/>
        </g>
		<g transform="matrix(1,0,0,1,2.14208,-37.5583)">
            <g transform="matrix(15.5462,0,0,15.5462,22.6012,80.2187)">
                <rect x="0.074" y="-0.738" width="0.084" height="0.738"
					  style="fill:rgb(109,109,109);fill-rule:nonzero;"/>
            </g>
			<g transform="matrix(15.5462,0,0,15.5462,25.1196,80.2187)">
                <path d="M0.457,-0L0.457,-0.321C0.457,-0.348 0.452,-0.372 0.443,-0.393C0.433,-0.414 0.419,-0.43 0.399,-0.441C0.379,-0.452 0.352,-0.458 0.32,-0.458C0.292,-0.458 0.265,-0.451 0.241,-0.436C0.217,-0.422 0.198,-0.402 0.183,-0.378C0.169,-0.353 0.162,-0.326 0.162,-0.296L0.113,-0.314C0.113,-0.356 0.123,-0.394 0.144,-0.428C0.164,-0.462 0.192,-0.489 0.226,-0.509C0.26,-0.529 0.297,-0.539 0.338,-0.539C0.379,-0.539 0.414,-0.531 0.445,-0.516C0.476,-0.5 0.499,-0.477 0.516,-0.448C0.533,-0.419 0.542,-0.384 0.542,-0.343L0.542,-0L0.457,-0ZM0.077,-0L0.077,-0.531L0.162,-0.531L0.162,-0L0.077,-0Z"
					  style="fill:rgb(109,109,109);fill-rule:nonzero;"/>
            </g>
			<g transform="matrix(15.5462,0,0,15.5462,33.5612,80.2187)">
                <path d="M0.28,0.01C0.248,0.01 0.218,0.007 0.191,-0C0.164,-0.007 0.14,-0.017 0.12,-0.03C0.1,-0.043 0.084,-0.06 0.073,-0.079C0.062,-0.098 0.056,-0.121 0.056,-0.146L0.056,-0.161L0.141,-0.161L0.141,-0.15C0.141,-0.123 0.154,-0.102 0.179,-0.088C0.204,-0.074 0.238,-0.067 0.281,-0.067C0.308,-0.067 0.332,-0.07 0.353,-0.075C0.374,-0.08 0.391,-0.089 0.403,-0.1C0.415,-0.111 0.421,-0.124 0.421,-0.141C0.421,-0.169 0.408,-0.188 0.382,-0.2C0.356,-0.212 0.318,-0.222 0.267,-0.231C0.239,-0.236 0.214,-0.242 0.19,-0.249C0.165,-0.257 0.144,-0.267 0.125,-0.279C0.106,-0.291 0.091,-0.305 0.08,-0.323C0.069,-0.341 0.064,-0.363 0.064,-0.388C0.064,-0.42 0.074,-0.447 0.093,-0.47C0.112,-0.492 0.138,-0.509 0.171,-0.521C0.203,-0.533 0.239,-0.539 0.28,-0.539C0.318,-0.539 0.354,-0.533 0.387,-0.521C0.419,-0.508 0.445,-0.49 0.465,-0.467C0.485,-0.443 0.495,-0.414 0.495,-0.38L0.495,-0.37L0.41,-0.37L0.41,-0.378C0.41,-0.397 0.404,-0.413 0.392,-0.425C0.379,-0.438 0.363,-0.447 0.344,-0.453C0.324,-0.459 0.303,-0.463 0.281,-0.463C0.26,-0.463 0.239,-0.46 0.219,-0.456C0.198,-0.451 0.181,-0.444 0.168,-0.434C0.155,-0.423 0.148,-0.409 0.148,-0.391C0.148,-0.373 0.154,-0.359 0.167,-0.348C0.179,-0.337 0.197,-0.328 0.22,-0.321C0.243,-0.314 0.27,-0.308 0.301,-0.303C0.328,-0.298 0.354,-0.291 0.379,-0.284C0.404,-0.276 0.425,-0.267 0.444,-0.255C0.463,-0.243 0.478,-0.229 0.489,-0.211C0.5,-0.193 0.505,-0.171 0.505,-0.146C0.505,-0.119 0.499,-0.097 0.487,-0.078C0.475,-0.058 0.459,-0.042 0.438,-0.029C0.417,-0.016 0.393,-0.006 0.366,0C0.339,0.007 0.31,0.01 0.28,0.01Z"
					  style="fill:rgb(109,109,109);fill-rule:nonzero;"/>
            </g>
			<g transform="matrix(15.5462,0,0,15.5462,41.1944,80.2187)">
                <path d="M0.082,-0L0.082,-0.531L0.166,-0.531L0.166,-0L0.082,-0ZM0.124,-0.653C0.108,-0.653 0.095,-0.657 0.083,-0.666C0.072,-0.675 0.066,-0.687 0.066,-0.703C0.066,-0.718 0.072,-0.729 0.083,-0.738C0.095,-0.747 0.108,-0.751 0.124,-0.751C0.14,-0.751 0.153,-0.747 0.165,-0.738C0.176,-0.729 0.182,-0.718 0.182,-0.703C0.182,-0.687 0.176,-0.675 0.165,-0.666C0.153,-0.657 0.14,-0.653 0.124,-0.653Z"
					  style="fill:rgb(109,109,109);fill-rule:nonzero;"/>
            </g>
			<g transform="matrix(15.5462,0,0,15.5462,43.9539,80.2187)">
                <path d="M0.416,-0.033C0.444,-0.03 0.469,-0.025 0.491,-0.017C0.513,-0.009 0.53,0.003 0.543,0.019C0.555,0.035 0.561,0.056 0.561,0.082C0.561,0.11 0.551,0.135 0.532,0.157C0.513,0.179 0.483,0.196 0.444,0.208C0.405,0.22 0.355,0.226 0.296,0.227C0.211,0.226 0.148,0.214 0.105,0.19C0.062,0.165 0.04,0.132 0.04,0.09C0.04,0.076 0.042,0.064 0.045,0.054C0.048,0.044 0.051,0.036 0.056,0.029L0.137,0.042C0.134,0.045 0.131,0.051 0.129,0.058C0.126,0.066 0.125,0.074 0.125,0.085C0.125,0.111 0.14,0.13 0.171,0.141C0.201,0.152 0.244,0.157 0.3,0.157C0.341,0.157 0.375,0.154 0.402,0.148C0.429,0.143 0.449,0.135 0.462,0.124C0.474,0.113 0.481,0.101 0.481,0.086C0.481,0.065 0.472,0.051 0.454,0.046C0.436,0.041 0.413,0.037 0.387,0.035L0.185,0.021C0.151,0.018 0.123,0.007 0.102,-0.011C0.081,-0.029 0.07,-0.051 0.07,-0.077C0.07,-0.093 0.074,-0.108 0.082,-0.123C0.09,-0.137 0.099,-0.149 0.11,-0.159C0.12,-0.169 0.13,-0.174 0.138,-0.177L0.205,-0.146C0.197,-0.145 0.186,-0.139 0.174,-0.129C0.162,-0.119 0.156,-0.107 0.156,-0.093C0.156,-0.081 0.161,-0.071 0.171,-0.063C0.18,-0.055 0.199,-0.05 0.228,-0.048L0.416,-0.033ZM0.489,-0.531L0.569,-0.531L0.536,-0.322C0.53,-0.283 0.518,-0.248 0.499,-0.216C0.48,-0.185 0.454,-0.16 0.421,-0.141C0.388,-0.123 0.347,-0.114 0.299,-0.114C0.249,-0.114 0.206,-0.123 0.17,-0.141C0.134,-0.159 0.107,-0.184 0.088,-0.216C0.069,-0.248 0.059,-0.284 0.059,-0.324C0.059,-0.365 0.069,-0.401 0.089,-0.434C0.109,-0.466 0.137,-0.492 0.172,-0.511C0.207,-0.53 0.248,-0.539 0.294,-0.539C0.335,-0.539 0.37,-0.532 0.401,-0.518C0.432,-0.504 0.456,-0.486 0.474,-0.465C0.492,-0.443 0.501,-0.422 0.503,-0.4L0.471,-0.398L0.489,-0.531ZM0.299,-0.19C0.331,-0.19 0.359,-0.195 0.382,-0.205C0.405,-0.216 0.423,-0.232 0.435,-0.252C0.448,-0.272 0.454,-0.297 0.454,-0.326C0.454,-0.354 0.448,-0.378 0.435,-0.399C0.423,-0.419 0.405,-0.435 0.382,-0.446C0.359,-0.457 0.331,-0.463 0.299,-0.463C0.268,-0.463 0.241,-0.457 0.218,-0.446C0.194,-0.434 0.176,-0.418 0.163,-0.398C0.15,-0.377 0.143,-0.353 0.143,-0.325C0.143,-0.296 0.149,-0.272 0.162,-0.252C0.174,-0.232 0.192,-0.216 0.215,-0.205C0.238,-0.195 0.266,-0.19 0.299,-0.19Z"
					  style="fill:rgb(109,109,109);fill-rule:nonzero;"/>
            </g>
			<g transform="matrix(15.5462,0,0,15.5462,52.3333,80.2187)">
                <path d="M0.457,-0L0.457,-0.304C0.457,-0.355 0.446,-0.393 0.424,-0.419C0.402,-0.445 0.368,-0.458 0.321,-0.458C0.289,-0.458 0.261,-0.452 0.237,-0.44C0.213,-0.427 0.195,-0.41 0.182,-0.389C0.168,-0.368 0.162,-0.344 0.162,-0.317L0.108,-0.333C0.108,-0.371 0.117,-0.406 0.137,-0.437C0.157,-0.468 0.184,-0.493 0.219,-0.511C0.253,-0.53 0.292,-0.539 0.336,-0.539C0.4,-0.539 0.45,-0.52 0.487,-0.482C0.524,-0.443 0.542,-0.39 0.542,-0.323L0.542,-0L0.457,-0ZM0.077,-0L0.077,-0.782L0.162,-0.782L0.162,-0L0.077,-0Z"
					  style="fill:rgb(109,109,109);fill-rule:nonzero;"/>
            </g>
			<g transform="matrix(15.5462,0,0,15.5462,60.7826,80.2187)">
                <path d="M0.286,0.008C0.27,0.008 0.254,0.006 0.238,0.002C0.223,-0.001 0.209,-0.008 0.196,-0.017C0.184,-0.027 0.174,-0.04 0.167,-0.058C0.159,-0.075 0.156,-0.098 0.156,-0.126L0.156,-0.456L0.026,-0.456L0.026,-0.531L0.109,-0.531C0.12,-0.531 0.129,-0.531 0.136,-0.532C0.142,-0.533 0.146,-0.535 0.149,-0.539C0.152,-0.542 0.154,-0.548 0.155,-0.555C0.155,-0.563 0.156,-0.573 0.156,-0.587L0.156,-0.707L0.241,-0.707L0.241,-0.531L0.407,-0.531L0.407,-0.456L0.241,-0.456L0.241,-0.158C0.241,-0.129 0.244,-0.107 0.251,-0.091C0.258,-0.075 0.274,-0.067 0.298,-0.067C0.307,-0.067 0.316,-0.068 0.325,-0.07C0.334,-0.071 0.34,-0.073 0.344,-0.075L0.344,-0.001C0.339,0.001 0.331,0.003 0.321,0.005C0.311,0.007 0.299,0.008 0.286,0.008Z"
					  style="fill:rgb(109,109,109);fill-rule:nonzero;"/>
            </g>
			<g transform="matrix(15.5462,0,0,15.5462,66.527,80.2187)">
                <path d="M0.28,0.01C0.248,0.01 0.218,0.007 0.191,-0C0.164,-0.007 0.14,-0.017 0.12,-0.03C0.1,-0.043 0.084,-0.06 0.073,-0.079C0.062,-0.098 0.056,-0.121 0.056,-0.146L0.056,-0.161L0.141,-0.161L0.141,-0.15C0.141,-0.123 0.154,-0.102 0.179,-0.088C0.204,-0.074 0.238,-0.067 0.281,-0.067C0.308,-0.067 0.332,-0.07 0.353,-0.075C0.374,-0.08 0.391,-0.089 0.403,-0.1C0.415,-0.111 0.421,-0.124 0.421,-0.141C0.421,-0.169 0.408,-0.188 0.382,-0.2C0.356,-0.212 0.318,-0.222 0.267,-0.231C0.239,-0.236 0.214,-0.242 0.19,-0.249C0.165,-0.257 0.144,-0.267 0.125,-0.279C0.106,-0.291 0.091,-0.305 0.08,-0.323C0.069,-0.341 0.064,-0.363 0.064,-0.388C0.064,-0.42 0.074,-0.447 0.093,-0.47C0.112,-0.492 0.138,-0.509 0.171,-0.521C0.203,-0.533 0.239,-0.539 0.28,-0.539C0.318,-0.539 0.354,-0.533 0.387,-0.521C0.419,-0.508 0.445,-0.49 0.465,-0.467C0.485,-0.443 0.495,-0.414 0.495,-0.38L0.495,-0.37L0.41,-0.37L0.41,-0.378C0.41,-0.397 0.404,-0.413 0.392,-0.425C0.379,-0.438 0.363,-0.447 0.344,-0.453C0.324,-0.459 0.303,-0.463 0.281,-0.463C0.26,-0.463 0.239,-0.46 0.219,-0.456C0.198,-0.451 0.181,-0.444 0.168,-0.434C0.155,-0.423 0.148,-0.409 0.148,-0.391C0.148,-0.373 0.154,-0.359 0.167,-0.348C0.179,-0.337 0.197,-0.328 0.22,-0.321C0.243,-0.314 0.27,-0.308 0.301,-0.303C0.328,-0.298 0.354,-0.291 0.379,-0.284C0.404,-0.276 0.425,-0.267 0.444,-0.255C0.463,-0.243 0.478,-0.229 0.489,-0.211C0.5,-0.193 0.505,-0.171 0.505,-0.146C0.505,-0.119 0.499,-0.097 0.487,-0.078C0.475,-0.058 0.459,-0.042 0.438,-0.029C0.417,-0.016 0.393,-0.006 0.366,0C0.339,0.007 0.31,0.01 0.28,0.01Z"
					  style="fill:rgb(109,109,109);fill-rule:nonzero;"/>
            </g>
        </g>
    </g>
</svg>
